<?xml version="1.0" standalone="no"?>
<!DOCTYPE svg PUBLIC "-//W3C//DTD SVG 20010904//EN"
 "http://www.w3.org/TR/2001/REC-SVG-20010904/DTD/svg10.dtd">
<svg version="1.0" xmlns="http://www.w3.org/2000/svg"
 width="500.000000pt" height="500.000000pt" viewBox="0 0 500.000000 500.000000"
 preserveAspectRatio="xMidYMid meet">

<g transform="translate(0.000000,500.000000) scale(0.100000,-0.100000)"
fill="#000000" stroke="none">
<path d="M2359 4570 c-445 -51 -842 -290 -1112 -670 l-53 -75 -157 -3 c-210
-3 -197 13 -197 -253 0 -219 0 -218 -67 -239 -153 -49 -290 -203 -372 -418
-53 -140 -72 -233 -78 -398 -8 -213 16 -352 92 -534 69 -167 197 -313 323
-372 37 -17 74 -34 82 -38 12 -6 16 -41 20 -188 4 -156 7 -184 23 -199 15 -16
40 -18 185 -21 107 -2 172 -8 181 -15 7 -6 41 -48 74 -92 98 -129 212 -234
356 -330 192 -127 379 -207 571 -245 138 -27 407 -29 545 -5 76 13 236 56 288
76 266 104 532 303 693 520 l66 89 142 0 c144 0 205 9 226 35 7 9 13 79 17
198 l6 184 76 39 c159 82 286 255 355 485 98 329 37 766 -143 1014 -67 92
-171 179 -257 214 l-31 12 -6 216 c-8 282 9 262 -215 265 l-165 3 -69 100
c-97 141 -117 164 -224 259 -283 252 -590 375 -974 390 -69 2 -159 1 -201 -4z
m439 -125 c377 -77 688 -285 899 -602 82 -124 80 -123 242 -123 75 0 143 -5
151 -10 12 -8 16 -48 20 -226 l5 -217 66 -21 c112 -36 207 -124 279 -258 105
-197 150 -450 121 -686 -39 -311 -215 -574 -420 -627 l-46 -11 -5 -185 c-3
-101 -9 -190 -13 -196 -6 -10 -48 -13 -151 -13 -168 0 -165 1 -254 -119 -205
-277 -485 -468 -806 -551 -488 -125 -998 9 -1357 357 -53 51 -120 128 -150
170 -30 42 -68 91 -85 109 l-32 34 -155 0 c-114 0 -158 3 -164 13 -4 6 -10 95
-13 197 l-5 185 -53 7 c-183 27 -330 204 -415 502 -30 104 -32 121 -32 276 0
185 13 259 71 417 44 117 94 202 159 268 57 59 156 112 225 121 l47 6 8 217
c4 122 11 221 17 229 7 8 49 12 140 12 71 0 138 5 148 10 11 6 47 52 82 103
84 124 275 315 395 395 156 103 323 174 498 210 141 30 134 29 304 31 128 1
174 -3 279 -24z"/>
<path d="M2355 4414 c-365 -54 -668 -213 -885 -465 -78 -90 -111 -142 -188
-294 -93 -184 -91 -172 -27 -185 66 -14 109 -42 153 -100 19 -25 38 -46 42
-48 4 -2 11 14 15 34 16 89 120 247 237 361 177 172 390 279 638 319 96 16
278 18 300 4 9 -6 19 -5 28 2 7 7 4 -5 -8 -25 -12 -20 -19 -40 -16 -45 3 -5
-9 -34 -25 -66 -27 -52 -62 -156 -54 -164 1 -2 14 11 29 28 16 20 26 26 26 16
0 -8 -5 -18 -11 -21 -6 -4 -8 -14 -5 -22 3 -8 2 -12 -3 -9 -5 3 -14 -14 -21
-38 -7 -24 -23 -54 -36 -65 -13 -11 -24 -20 -24 -18 0 1 9 26 20 56 12 29 19
55 17 58 -3 2 -13 -19 -23 -47 -21 -57 -62 -112 -87 -116 -9 -1 -17 -1 -17 -1
0 1 4 17 9 35 7 22 6 30 -1 26 -16 -10 -3 23 64 164 33 70 63 121 65 114 5
-13 48 44 63 83 7 19 5 20 -26 17 -32 -4 -39 -22 -8 -22 19 0 18 -9 -6 -45
-11 -16 -20 -26 -20 -21 0 25 -39 -30 -77 -111 -24 -51 -48 -95 -53 -98 -13
-8 -54 -97 -51 -110 2 -5 -1 -7 -5 -2 -4 4 -14 1 -23 -7 -14 -13 -16 -11 -15
17 2 71 28 138 77 200 l49 62 -44 -45 c-24 -25 -59 -69 -77 -97 -18 -29 -36
-53 -40 -53 -4 0 -6 19 -5 42 2 41 2 42 -11 18 -25 -47 -37 -146 -25 -207 11
-62 28 -93 73 -134 l30 -28 -89 31 c-57 19 -117 32 -169 35 -44 3 -85 9 -91
14 -17 14 -54 -19 -54 -48 0 -15 -3 -24 -6 -20 -4 3 -12 0 -20 -7 -57 -58 24
-260 135 -336 20 -14 40 -31 44 -37 4 -7 15 -13 22 -13 23 0 18 -17 -7 -26
-16 -5 1 -9 56 -11 53 -3 82 0 87 8 4 6 15 12 25 13 34 4 74 18 74 27 0 4 12
20 28 34 l27 26 33 -37 c37 -43 40 -54 11 -54 -34 0 -12 -18 28 -23 21 -2 58
-12 83 -22 55 -21 169 -16 245 11 46 16 101 16 749 10 384 -4 703 -9 707 -12
5 -3 9 -209 9 -457 l0 -452 -1800 0 -1800 0 0 456 0 456 427 6 c236 4 501 7
590 7 111 0 164 4 169 11 5 9 -138 10 -577 5 -321 -4 -594 -10 -607 -13 l-22
-5 0 -472 0 -471 1820 0 1820 0 0 472 c0 259 -4 474 -8 477 -5 3 -322 8 -705
12 -383 4 -694 11 -691 16 3 4 0 8 -5 8 -6 0 -10 3 -8 8 2 7 -6 12 -24 12 -5
0 -8 -4 -4 -9 3 -5 0 -13 -6 -17 -6 -3 -15 -1 -19 6 -4 7 -13 9 -19 6 -6 -4
-21 0 -33 8 -31 22 -45 20 -23 -4 10 -11 30 -21 44 -21 25 -2 25 -2 2 -6 -14
-3 -35 3 -50 15 -14 10 -56 29 -93 41 -37 12 -87 38 -112 56 -46 36 -92 92
-83 102 3 2 13 -9 21 -26 9 -16 31 -41 48 -54 56 -41 65 -42 19 -1 -24 21 -57
58 -73 83 -15 25 -28 41 -28 35 -1 -25 -29 45 -30 74 0 18 -5 43 -11 55 -10
21 -10 21 5 3 9 -11 16 -36 16 -55 0 -20 4 -43 9 -50 12 -19 3 64 -11 101 -5
15 -6 33 -2 40 6 11 5 11 -8 0 -13 -10 -15 -9 -11 12 4 22 8 23 35 15 17 -4
33 -11 36 -14 3 -3 11 4 19 15 17 24 48 25 98 4 42 -17 39 -20 94 71 51 85 65
160 52 290 -14 142 -26 180 -62 196 -33 13 -34 18 -15 44 17 24 82 17 192 -20
236 -78 424 -211 568 -399 57 -75 126 -200 126 -230 0 -24 7 -20 60 27 45 41
126 77 171 77 32 0 33 26 5 95 -26 65 -147 255 -232 367 -53 68 -187 193 -269
250 -83 57 -231 132 -323 162 -155 52 -247 67 -427 71 -93 2 -183 1 -200 -1z
m425 -38 c203 -37 413 -129 565 -250 65 -51 201 -183 228 -221 12 -16 -21 12
-72 62 -248 245 -523 373 -863 405 -498 46 -959 -173 -1271 -602 -30 -42 -6 1
37 65 61 91 238 263 339 329 165 108 374 191 547 215 41 6 86 13 100 15 49 9
307 -3 390 -18z m-23 -41 c204 -33 387 -112 593 -258 80 -57 292 -278 352
-367 47 -71 114 -209 105 -215 -1 -1 -30 -8 -65 -15 -51 -10 -73 -22 -111 -56
l-48 -43 -11 37 c-26 85 -182 287 -291 375 -370 301 -845 359 -1278 157 -230
-108 -464 -340 -539 -537 -19 -49 -28 -53 -45 -20 -24 46 -100 97 -146 97 -42
1 -46 15 -18 71 101 199 308 433 496 560 201 135 383 198 669 233 58 7 239 -3
337 -19z m-64 -400 c4 -8 2 -17 -3 -20 -6 -4 -10 3 -10 14 0 25 6 27 13 6z
m-46 -37 c-3 -8 -6 -5 -6 6 -1 11 2 17 5 13 3 -3 4 -12 1 -19z m-10 -40 c-3
-8 -6 -5 -6 6 -1 11 2 17 5 13 3 -3 4 -12 1 -19z m-48 -212 c-28 -77 -34 -67
-6 13 12 34 23 58 25 53 1 -5 -7 -35 -19 -66z m-70 -215 c-23 -19 -39 -19 -39
-1 0 7 15 12 54 19 4 0 -2 -8 -15 -18z m-399 -16 c95 -7 230 -60 215 -85 -3
-5 4 -14 15 -20 11 -6 18 -15 15 -20 -7 -12 -44 1 -145 48 -47 22 -98 43 -115
47 -16 3 2 -8 40 -25 99 -44 106 -48 144 -80 28 -24 32 -32 22 -44 -8 -10 -9
-16 -1 -21 17 -10 12 -25 -9 -25 -26 0 -138 52 -180 84 -19 14 -42 26 -52 26
-9 0 -22 7 -29 15 -7 8 -18 15 -26 15 -17 0 -34 32 -34 66 0 20 3 24 13 16 6
-5 28 -12 47 -16 l35 -6 -32 13 c-46 18 -53 30 -13 23 19 -4 60 -8 90 -11z
m-121 -147 c20 -21 41 -38 47 -38 6 0 19 -10 30 -21 10 -12 44 -39 75 -60 58
-39 91 -81 46 -58 -100 52 -217 144 -217 172 0 5 -11 18 -25 29 -14 11 -25 24
-25 29 0 12 22 -5 69 -53z m4 50 c12 -6 28 -19 35 -30 7 -10 21 -18 30 -18 10
0 28 -7 41 -16 13 -9 49 -30 81 -46 72 -35 89 -54 61 -63 -23 -7 -112 35 -148
71 -13 13 -37 31 -53 39 -17 9 -30 19 -30 24 0 5 -15 18 -32 30 -35 22 -22 29
15 9z m24 -170 c15 -16 31 -28 35 -28 4 0 12 -9 18 -21 10 -18 10 -19 -7 -10
-27 14 -103 98 -103 113 0 7 7 4 15 -7 8 -11 27 -32 42 -47z m223 -177 c0 -5
-18 -8 -39 -8 -22 0 -38 4 -35 9 7 11 74 10 74 -1z"/>
<path d="M2457 4252 c-3 -4 -3 -28 0 -55 5 -43 8 -47 32 -46 25 0 26 0 4 9
-27 11 -30 28 -7 37 15 5 15 7 0 15 -22 12 -20 28 4 28 11 0 20 5 20 10 0 12
-47 14 -53 2z"/>
<path d="M2530 4205 c0 -54 1 -55 28 -54 16 1 20 3 10 6 -14 3 -18 15 -18 54
0 27 -4 49 -10 49 -5 0 -10 -25 -10 -55z"/>
<path d="M2393 4213 l-9 -38 -17 33 c-23 42 -42 42 -33 1 3 -17 6 -40 6 -50 0
-11 5 -19 10 -19 6 0 10 10 10 23 1 22 1 22 15 -3 10 -19 15 -21 18 -10 3 8 8
22 10 30 4 9 6 6 6 -7 1 -13 6 -23 12 -23 8 0 10 13 5 38 -3 20 -6 43 -6 50 0
27 -19 10 -27 -25z"/>
<path d="M2600 4200 c0 -27 5 -50 10 -50 6 0 10 7 10 15 0 8 5 15 10 15 6 0
10 -10 10 -22 0 -39 17 -5 23 45 5 49 -8 65 -19 22 -3 -14 -10 -25 -15 -25 -5
0 -9 11 -9 25 0 14 -4 25 -10 25 -5 0 -10 -22 -10 -50z"/>
<path d="M2703 4232 c-6 -4 -13 -27 -15 -52 -3 -43 -2 -45 24 -48 23 -3 28 1
33 25 4 15 9 34 11 42 9 28 -26 50 -53 33z m30 -39 c-8 -47 -13 -57 -23 -47
-6 6 -7 25 -4 42 8 40 33 44 27 5z"/>
<path d="M2786 4213 c-14 -50 -18 -96 -7 -89 6 4 11 14 11 22 0 9 6 14 13 11
6 -2 11 -12 11 -21 -3 -30 11 -16 24 25 14 44 10 53 -25 63 -16 5 -23 2 -27
-11z m42 -20 c-5 -25 -28 -28 -28 -4 0 12 6 21 16 21 9 0 14 -7 12 -17z"/>
<path d="M2204 4205 c-8 -20 15 -85 32 -92 19 -7 45 16 40 36 -2 9 -7 28 -10
44 -5 21 -12 27 -32 27 -13 0 -27 -7 -30 -15z m48 -42 c2 -18 -1 -33 -6 -35
-12 -4 -28 52 -21 71 8 22 24 1 27 -36z"/>
<path d="M2912 4158 c-6 -18 -13 -41 -17 -50 -4 -11 -3 -18 3 -18 6 0 13 8 16
18 4 11 15 18 27 18 12 -1 26 7 33 17 9 15 7 21 -8 33 -30 22 -44 17 -54 -18z
m48 -3 c0 -8 -7 -15 -15 -15 -8 0 -15 7 -15 15 0 8 7 15 15 15 8 0 15 -7 15
-15z"/>
<path d="M2075 4170 c-8 -13 12 -75 29 -89 18 -15 46 -3 46 19 0 9 -5 31 -11
49 -8 23 -17 31 -34 31 -13 0 -27 -5 -30 -10z m49 -22 c15 -59 -4 -81 -23 -27
-14 41 -14 49 3 49 7 0 16 -10 20 -22z"/>
<path d="M2003 4149 c-28 -10 -28 -13 1 -67 l22 -43 24 19 c22 18 23 22 11 50
-17 42 -31 51 -58 41z m36 -40 c16 -45 1 -58 -20 -18 -9 19 -15 37 -12 41 9
16 21 7 32 -23z"/>
<path d="M2997 4128 c-40 -54 -42 -61 -19 -54 14 5 24 1 30 -11 11 -19 10 -22
27 61 8 38 -11 40 -38 4z m18 -27 c-3 -6 -11 -11 -17 -11 -6 0 -6 6 2 15 14
17 26 13 15 -4z"/>
<path d="M3062 4084 c-22 -44 -22 -79 -1 -41 15 26 32 21 25 -8 -10 -38 8 -30
27 13 22 49 21 59 -2 72 -27 14 -24 15 -49 -36z m51 20 c9 -10 -4 -34 -19 -34
-16 0 -16 2 -8 24 6 17 16 20 27 10z"/>
<path d="M1940 4101 c16 -31 12 -35 -16 -16 -14 9 -28 15 -30 12 -2 -2 8 -26
23 -52 15 -27 29 -43 31 -36 2 7 -1 18 -7 24 -22 22 -10 28 16 8 14 -12 28
-19 30 -17 8 8 -35 96 -47 96 -7 0 -8 -6 0 -19z"/>
<path d="M1845 4068 c-11 -6 -22 -12 -24 -14 -8 -7 49 -84 62 -84 18 0 42 18
34 26 -3 4 -13 2 -21 -5 -11 -9 -15 -8 -20 6 -4 10 -2 19 3 21 20 7 11 20 -9
15 -22 -6 -29 22 -7 30 6 2 10 7 7 10 -3 3 -14 1 -25 -5z"/>
<path d="M3145 4040 c-36 -36 -38 -46 -10 -40 5 1 15 -6 22 -16 11 -15 13 -15
23 10 32 86 20 102 -35 46z m29 -15 c-4 -8 -11 -15 -16 -15 -6 0 -5 6 2 15 7
8 14 15 16 15 2 0 1 -7 -2 -15z"/>
<path d="M1759 4011 c-25 -22 -20 -27 10 -11 16 8 19 4 24 -31 3 -22 8 -43 10
-46 8 -8 47 16 47 29 0 9 -3 9 -12 0 -20 -20 -27 -14 -30 30 -4 49 -16 56 -49
29z"/>
<path d="M3256 3977 c-17 -46 -20 -67 -8 -67 14 0 87 69 73 70 -8 0 -23 -8
-34 -17 -19 -17 -20 -17 -15 2 3 11 9 28 13 38 4 9 3 17 -3 17 -5 0 -17 -19
-26 -43z"/>
<path d="M1697 3964 c-7 -8 34 -94 45 -94 4 0 8 7 8 15 0 8 9 15 20 15 30 0
24 12 -19 43 -42 29 -45 30 -54 21z m43 -39 c7 -9 8 -15 2 -15 -5 0 -12 7 -16
15 -3 8 -4 15 -2 15 2 0 9 -7 16 -15z"/>
<path d="M3311 3919 c-24 -32 -22 -55 4 -65 31 -12 85 57 64 82 -18 22 -43 16
-68 -17z m59 3 c0 -13 -49 -56 -56 -49 -10 10 24 57 41 57 8 0 15 -4 15 -8z"/>
<path d="M1625 3900 c-18 -20 -18 -21 15 -55 37 -38 57 -46 38 -15 -15 24 -4
37 17 20 9 -7 19 -10 23 -6 4 4 0 13 -9 19 -9 7 -21 22 -28 35 -15 27 -32 28
-56 2z m40 -10 c11 -17 -5 -32 -21 -19 -7 6 -11 15 -8 20 7 12 21 11 29 -1z"/>
<path d="M3387 3862 c-15 -15 -27 -35 -27 -44 0 -21 26 -42 41 -32 9 5 5 10
-11 16 l-23 9 28 29 c34 35 45 38 45 10 0 -11 5 -20 10 -20 18 0 11 39 -9 50
-26 13 -23 14 -54 -18z"/>
<path d="M1567 3842 c-20 -22 -22 -33 -4 -26 7 2 26 -9 41 -25 16 -17 33 -28
38 -25 6 4 -5 21 -22 39 -18 18 -29 38 -26 44 12 18 -10 12 -27 -7z"/>
<path d="M3506 3833 c5 -5 12 -12 16 -18 4 -6 8 -2 8 8 0 9 -7 17 -17 17 -9 0
-12 -3 -7 -7z"/>
<path d="M3447 3792 l-38 -38 21 -19 c20 -18 20 -18 18 6 -3 20 1 24 21 21 19
-2 22 0 12 12 -16 19 5 32 24 16 22 -18 18 4 -3 23 -17 16 -21 14 -55 -21z"/>
<path d="M1993 3377 c12 -36 130 -78 152 -55 7 8 6 9 -2 4 -6 -3 -44 9 -83 28
-39 18 -69 29 -67 23z"/>
<path d="M2174 3306 c11 -9 24 -16 30 -16 12 0 7 5 -24 19 -24 11 -24 11 -6
-3z"/>
<path d="M2379 3843 c-13 -16 -12 -17 4 -4 16 13 21 21 13 21 -2 0 -10 -8 -17
-17z"/>
<path d="M2330 3790 c-12 -16 -19 -30 -16 -30 2 0 14 14 26 30 12 17 19 30 16
30 -2 0 -14 -13 -26 -30z"/>
<path d="M1035 3594 c-13 -14 -21 -72 -31 -249 -7 -136 -15 -150 -86 -159
-112 -14 -162 -42 -231 -126 -87 -107 -152 -267 -183 -449 -33 -200 1 -414 95
-606 84 -170 168 -243 306 -265 39 -6 75 -17 81 -25 6 -8 16 -83 22 -166 7
-84 17 -158 22 -164 6 -7 55 -15 121 -19 61 -4 120 -12 130 -19 10 -6 44 -54
76 -105 169 -274 428 -474 745 -576 434 -139 929 -51 1278 229 101 81 225 211
288 303 95 139 108 151 177 162 33 6 83 10 112 10 42 0 54 4 63 20 6 10 14 85
19 165 6 104 12 151 22 161 8 8 41 21 72 29 86 22 130 49 179 107 98 117 153
236 188 408 51 245 -7 555 -141 754 -70 103 -131 149 -224 165 -33 6 -66 18
-74 26 -11 11 -17 54 -22 172 -4 87 -8 167 -8 178 -2 44 -15 49 -120 50 -82 1
-98 -1 -89 -12 6 -7 30 -13 55 -13 33 0 50 -6 68 -25 25 -24 25 -26 25 -212 0
-246 -9 -233 155 -233 l124 0 51 -62 c28 -35 71 -103 95 -153 113 -231 133
-502 54 -740 -34 -103 -125 -260 -175 -305 -37 -32 -44 -33 -187 -34 -112 -1
-117 -9 -118 -175 -1 -214 -14 -251 -88 -251 -58 0 -109 -19 -131 -48 -11 -15
-61 -81 -109 -147 -241 -327 -574 -522 -965 -567 -135 -15 -340 -4 -462 26
-358 88 -648 293 -836 592 -40 64 -81 120 -91 126 -11 5 -52 12 -93 15 -41 3
-81 11 -90 17 -17 13 -33 148 -34 283 0 87 -4 100 -42 119 -22 11 -46 13 -97
8 -40 -4 -90 -1 -124 6 -47 9 -63 18 -94 54 -130 148 -215 428 -198 646 17
204 105 431 214 549 l38 41 130 0 c177 0 169 -11 178 230 4 101 11 194 16 206
6 17 21 25 63 34 31 6 58 14 60 18 8 13 -166 9 -179 -4z m2965 -34 c0 -5 -4
-10 -10 -10 -5 0 -10 5 -10 10 0 6 5 10 10 10 6 0 10 -4 10 -10z m-2949 -208
c-2 -120 -7 -174 -17 -194 l-15 -28 -107 1 c-98 1 -105 2 -77 14 17 7 57 17
91 20 34 4 67 11 74 15 14 8 29 125 30 235 0 73 8 120 18 110 4 -3 5 -81 3
-173z m2960 171 c0 -5 4 -81 8 -170 4 -90 11 -167 16 -172 6 -6 38 -14 72 -20
106 -17 110 -30 9 -31 -131 0 -126 -8 -126 217 0 115 4 183 10 183 6 0 10 -3
11 -7z m-2975 -1763 c14 -30 27 -340 15 -340 -10 0 -17 55 -27 202 -3 54 -12
105 -19 115 -9 12 -34 19 -88 24 -128 12 -129 29 -2 26 106 -2 110 -3 121 -27z
m3129 15 c-22 -8 -54 -14 -71 -14 -61 -2 -68 -16 -75 -157 -4 -71 -8 -141 -8
-156 -1 -16 -5 -28 -11 -28 -6 0 -10 61 -10 163 0 211 -2 207 123 206 90 -1
91 -1 52 -14z"/>
<path d="M1952 3410 c0 -14 2 -19 5 -12 2 6 2 18 0 25 -3 6 -5 1 -5 -13z"/>
<path d="M2560 3323 c0 -5 8 -17 17 -28 14 -18 15 -18 9 -2 -3 10 -6 23 -6 28
0 5 -4 9 -10 9 -5 0 -10 -3 -10 -7z"/>
<path d="M2634 3306 c19 -16 19 -16 -7 -16 -18 0 -25 -4 -21 -14 3 -8 -4 -16
-18 -19 -25 -7 -39 8 -30 31 3 10 1 13 -6 8 -7 -4 -12 -2 -12 5 0 7 -3 10 -6
7 -11 -12 54 -134 85 -161 30 -25 46 -32 96 -41 11 -1 28 -6 37 -10 9 -4 27
-6 39 -4 19 2 25 12 32 45 5 27 4 49 -2 60 -6 11 -11 13 -11 5 0 -10 -5 -10
-20 -2 -15 8 -20 8 -20 -1 0 -7 -9 -6 -25 5 -36 23 -42 20 -15 -9 13 -14 19
-25 14 -25 -14 1 -40 23 -47 40 -4 10 -6 8 -6 -7 -1 -14 5 -23 14 -23 8 0 21
-12 29 -27 8 -16 15 -23 16 -17 0 13 48 16 55 3 3 -4 -10 -11 -29 -15 -30 -5
-39 -2 -60 22 -14 16 -26 23 -26 16 0 -8 -5 -9 -17 -3 -10 5 -34 14 -53 19
l-35 10 36 1 c22 1 39 7 42 15 4 11 -3 13 -32 9 -24 -3 -41 -1 -46 7 -9 15 -4
19 26 22 16 2 23 -2 21 -10 -2 -9 4 -12 16 -8 10 3 37 7 60 8 29 1 42 6 42 16
0 10 -7 13 -20 9 -17 -4 -20 -2 -16 16 3 12 3 16 0 9 -3 -6 -11 -9 -17 -5 -6
4 -8 0 -4 -10 5 -13 0 -17 -22 -17 -39 0 -45 10 -19 37 12 13 17 23 11 23 -6
0 -20 3 -30 6 -16 5 -16 4 1 -10z m166 -125 c0 -5 -9 -11 -19 -14 -14 -3 -18
-1 -14 9 6 15 33 19 33 5z m-129 -31 c28 -16 23 -32 -6 -18 -14 6 -25 15 -25
20 0 11 7 10 31 -2z"/>
<path d="M2760 3230 c0 -5 7 -7 15 -4 8 4 15 8 15 10 0 2 -7 4 -15 4 -8 0 -15
-4 -15 -10z"/>
<path d="M2910 3140 c0 -5 5 -10 11 -10 5 0 7 5 4 10 -3 6 -8 10 -11 10 -2 0
-4 -4 -4 -10z"/>
<path d="M2909 3086 c-15 -19 -15 -25 -3 -51 12 -25 13 -26 10 -6 -3 13 0 33
5 43 15 29 6 39 -12 14z"/>
<path d="M725 2898 c-3 -7 -4 -204 -3 -438 l3 -425 268 -3 c147 -1 267 1 267
6 0 4 -5 13 -12 20 -9 9 270 12 1255 12 838 0 1267 -3 1267 -10 0 -5 -4 -10
-10 -10 -5 0 -10 -5 -10 -10 0 -7 90 -9 263 -8 l262 3 3 438 2 437 -240 0
c-207 0 -240 -2 -240 -15 0 -13 -78 -15 -646 -15 -427 0 -643 -3 -639 -10 3
-5 2 -10 -4 -10 -5 0 -13 5 -16 10 -4 6 -223 10 -626 10 -544 0 -619 2 -619
15 0 13 -36 15 -260 15 -199 0 -262 -3 -265 -12z m3122 -84 c-8 -9 -2625 -9
-2634 -1 -3 4 589 7 1317 7 728 0 1320 -3 1317 -6z m-596 -86 c-19 -35 -38
-54 -52 -56 -19 -3 -21 0 -16 25 14 69 24 83 63 83 l36 0 -31 -52z m590 -93
c31 -17 49 -49 49 -91 0 -21 -5 -24 -35 -24 -31 0 -35 3 -35 25 0 18 -7 26
-27 31 -36 10 -55 -18 -51 -76 l3 -45 65 -23 c35 -13 68 -28 72 -35 12 -19 9
-143 -3 -171 -12 -25 -63 -56 -93 -56 -40 0 -87 30 -101 64 -25 59 -20 76 19
76 29 0 34 -4 39 -29 7 -33 30 -45 58 -31 15 8 19 22 19 60 l0 48 -65 22 c-40
13 -69 30 -76 42 -18 34 -7 162 16 188 37 42 95 51 146 25z m-2587 -117 c23
-64 45 -120 49 -124 4 -4 7 50 7 119 l0 127 30 0 30 0 0 -231 0 -230 -27 3
c-24 3 -30 13 -70 122 -23 65 -45 121 -48 124 -3 3 -5 -52 -5 -122 l0 -127
-32 3 -33 3 -3 228 -2 228 31 -3 c31 -3 33 -6 73 -120z m385 -90 c22 -117 41
-221 41 -231 0 -15 -7 -18 -32 -15 -28 3 -33 8 -41 41 -9 35 -11 37 -48 37
-40 0 -42 -2 -53 -52 -6 -24 -11 -28 -41 -28 -19 0 -35 2 -35 5 0 7 58 298 76
383 l16 72 38 0 37 0 42 -212z m271 177 c0 -33 -2 -35 -35 -35 l-35 0 0 -179
c0 -99 -3 -186 -6 -195 -4 -10 -18 -16 -35 -16 l-29 0 0 194 0 195 -37 3 c-35
3 -38 6 -41 36 l-3 32 110 0 111 0 0 -35z m118 -157 c2 -178 4 -188 23 -199
16 -8 25 -7 40 7 17 16 19 32 19 201 l0 183 35 0 35 0 0 -185 c0 -215 -8 -247
-64 -270 -20 -8 -43 -15 -52 -15 -29 0 -81 31 -92 54 -8 18 -18 350 -13 409 1
5 16 7 34 5 l32 -3 3 -187z m452 -38 l0 -230 -35 0 -35 0 0 230 0 230 35 0 35
0 0 -230z m170 35 l0 -195 50 0 50 0 0 -35 0 -35 -85 0 -85 0 0 230 0 230 35
0 35 0 0 -195z m230 80 l0 -115 35 0 35 0 0 115 0 115 35 0 35 0 0 -230 0
-230 -35 0 -35 0 0 80 0 80 -35 0 -35 0 0 -80 0 -80 -35 0 -35 0 0 230 0 230
35 0 35 0 0 -115z m428 78 l3 -33 -60 0 -61 0 0 -60 0 -60 50 0 50 0 0 -35 0
-35 -50 0 -50 0 0 -65 0 -65 60 0 60 0 0 -35 0 -35 -95 0 -95 0 0 230 0 231
93 -3 92 -3 3 -32z m142 -153 c0 -177 1 -190 19 -200 25 -13 27 -13 45 6 13
13 16 46 16 200 l0 184 35 0 35 0 0 -194 c0 -184 -1 -195 -22 -226 -40 -59
-127 -63 -173 -8 -25 29 -25 31 -25 229 l0 199 35 0 35 0 0 -190z m345 -350
c-4 -7 -447 -10 -1296 -10 -853 0 -1289 3 -1289 10 0 7 439 10 1296 10 861 0
1293 -3 1289 -10z"/>
<path d="M1541 2420 c-15 -92 -15 -90 20 -90 24 0 29 4 25 18 -3 9 -8 43 -12
75 -3 31 -10 59 -14 62 -4 2 -12 -27 -19 -65z"/>
<path d="M1255 1960 c29 -13 2502 -13 2510 0 4 7 -419 10 -1262 9 -717 0
-1259 -4 -1248 -9z"/>
<path d="M1699 1616 c-5 -61 1 -146 11 -146 6 0 10 13 10 28 0 21 7 32 26 40
21 10 25 18 22 50 -3 34 -6 37 -35 40 -24 2 -33 -1 -34 -12z m49 -34 c2 -15
-2 -22 -12 -22 -11 0 -16 9 -16 26 0 31 23 28 28 -4z"/>
<path d="M1800 1551 c0 -47 4 -81 10 -81 6 0 10 14 10 30 0 20 5 30 15 30 10
0 15 -10 15 -30 0 -16 5 -30 10 -30 7 0 10 29 8 78 l-3 77 -32 3 -33 3 0 -80z
m48 32 c-4 -39 -28 -42 -28 -4 0 21 5 31 16 31 11 0 14 -8 12 -27z"/>
<path d="M1914 1617 c-3 -8 -4 -43 -2 -78 3 -64 3 -64 33 -64 l30 0 0 75 c0
74 0 75 -28 78 -17 2 -29 -2 -33 -11z m46 -67 c0 -47 -3 -60 -15 -60 -12 0
-15 13 -15 60 0 47 3 60 15 60 12 0 15 -13 15 -60z"/>
<path d="M2020 1551 c0 -77 1 -81 23 -81 42 0 48 12 45 86 l-3 69 -32 3 -33 3
0 -80z m50 -1 c0 -47 -3 -60 -15 -60 -12 0 -15 13 -15 60 0 47 3 60 15 60 12
0 15 -13 15 -60z"/>
<path d="M2132 1553 c3 -76 4 -78 30 -81 18 -2 30 3 37 17 15 26 9 133 -7 139
-9 3 -12 -15 -12 -67 0 -56 -3 -71 -15 -71 -12 0 -15 14 -15 70 0 42 -4 70
-10 70 -7 0 -10 -29 -8 -77z"/>
<path d="M2230 1620 c0 -5 5 -10 10 -10 6 0 10 -30 10 -70 0 -40 4 -70 10 -70
6 0 10 28 10 65 0 49 4 67 15 71 27 11 16 24 -20 24 -19 0 -35 -4 -35 -10z"/>
<path d="M2327 1623 c-9 -8 -9 -116 -1 -137 7 -19 45 -21 62 -4 12 12 17 104
6 132 -6 16 -54 22 -67 9z m48 -74 c0 -41 -4 -54 -15 -54 -16 0 -27 73 -16
102 13 33 31 5 31 -48z"/>
<path d="M2437 1623 c-4 -3 -7 -21 -7 -40 0 -27 5 -35 25 -43 15 -6 25 -17 25
-30 0 -22 -26 -28 -33 -7 -2 6 -8 9 -12 5 -16 -15 5 -39 32 -36 24 3 28 8 31
40 3 33 0 38 -22 44 -19 4 -26 13 -26 30 0 25 25 34 33 12 2 -7 8 -10 12 -6
14 13 -4 38 -28 38 -13 0 -27 -3 -30 -7z"/>
<path d="M2590 1550 c0 -83 16 -111 22 -37 l3 42 14 -42 c8 -24 18 -43 23 -43
4 0 8 36 8 80 0 83 -16 111 -22 38 l-3 -43 -14 43 c-8 23 -18 42 -23 42 -4 0
-8 -36 -8 -80z"/>
<path d="M2711 1593 c-18 -68 -24 -123 -13 -123 5 0 12 7 16 15 3 8 12 15 21
15 8 0 15 -7 15 -15 0 -8 5 -15 10 -15 13 0 12 21 -3 94 -15 71 -32 82 -46 29z
m29 -48 c0 -14 -4 -25 -10 -25 -5 0 -10 11 -10 25 0 14 5 25 10 25 6 0 10 -11
10 -25z"/>
<path d="M2780 1620 c0 -5 7 -10 15 -10 12 0 15 -14 15 -70 0 -40 4 -70 10
-70 6 0 10 30 10 70 0 56 3 70 15 70 8 0 15 5 15 10 0 6 -18 10 -40 10 -22 0
-40 -4 -40 -10z"/>
<path d="M2882 1553 c3 -74 4 -78 27 -81 36 -6 51 22 51 95 0 49 -3 63 -15 63
-12 0 -15 -14 -15 -70 0 -56 -3 -70 -15 -70 -12 0 -15 14 -15 70 0 42 -4 70
-10 70 -7 0 -10 -29 -8 -77z"/>
<path d="M2990 1550 c0 -47 4 -80 10 -80 6 0 10 14 10 31 0 24 4 30 18 27 10
-2 18 -14 20 -31 6 -54 20 -26 20 41 0 76 -9 92 -49 92 l-29 0 0 -80z m54 45
c7 -18 -2 -45 -15 -45 -13 0 -22 27 -15 45 3 8 10 15 15 15 5 0 11 -7 15 -15z"/>
<path d="M3117 1623 c-2 -4 -10 -39 -17 -76 -12 -68 -7 -97 11 -64 12 21 39
23 39 2 0 -8 5 -15 10 -15 13 0 12 21 -3 94 -11 54 -28 79 -40 59z m23 -78 c0
-14 -4 -25 -10 -25 -5 0 -10 11 -10 25 0 14 5 25 10 25 6 0 10 -11 10 -25z"/>
<path d="M3200 1550 c0 -47 4 -80 10 -80 6 0 10 33 10 80 0 47 -4 80 -10 80
-6 0 -10 -33 -10 -80z"/>
<path d="M3260 1616 c-19 -23 -8 -59 23 -74 28 -13 35 -36 16 -48 -6 -3 -16
-1 -22 5 -18 18 -28 12 -17 -10 8 -14 19 -19 38 -17 23 3 27 8 30 40 3 33 0
38 -22 44 -19 4 -26 13 -26 30 0 25 25 34 33 12 2 -7 8 -10 12 -6 4 4 5 14 2
23 -8 19 -51 20 -67 1z"/>
<path d="M3446 1446 c-155 -246 -434 -430 -725 -480 -441 -76 -896 115 -1116
468 -49 79 -72 97 -37 29 95 -182 309 -363 536 -453 151 -60 233 -74 416 -74
179 0 282 18 413 71 243 99 451 277 551 471 32 62 10 43 -38 -32z"/>
<path d="M1331 1368 c129 -257 344 -468 604 -593 206 -99 405 -140 630 -132
312 12 577 109 810 298 81 65 212 200 249 256 14 21 38 56 53 78 37 56 93 155
93 166 0 23 -18 5 -44 -43 -119 -221 -306 -420 -514 -546 -515 -313 -1206
-230 -1624 195 -48 48 -101 108 -119 132 -38 54 -130 206 -147 244 -6 15 -16
27 -22 27 -6 0 8 -37 31 -82z"/>
<path d="M2315 1407 c9 -15 15 -36 12 -46 -4 -17 -2 -18 18 -11 24 9 29 5 65
-45 l15 -20 -25 20 -24 20 16 -25 c9 -14 22 -24 28 -22 6 1 8 -2 5 -8 -4 -7 5
-38 20 -71 15 -34 24 -63 21 -66 -3 -3 -10 6 -15 21 -17 43 -20 29 -5 -21 17
-56 11 -68 -10 -22 -15 32 -14 25 1 -31 3 -10 -1 -9 -9 3 -34 49 -36 48 -14
-5 l25 -56 -24 3 c-44 4 -89 49 -113 111 -12 33 -20 46 -17 29 4 -16 7 -38 8
-47 1 -9 4 -15 7 -13 3 2 14 -16 25 -38 38 -79 81 -102 164 -87 40 7 67 7 88
-1 49 -16 89 10 121 79 23 48 27 70 26 138 l0 82 115 1 c63 1 117 4 120 6 2 3
-53 5 -123 5 -70 0 -136 5 -147 10 -23 13 -25 50 -4 90 9 17 12 30 8 30 -5 0
-16 -20 -26 -45 -12 -29 -30 -51 -53 -64 -19 -11 -34 -26 -34 -33 1 -8 6 -6
15 6 7 10 18 15 23 12 11 -7 -13 -175 -34 -230 -15 -41 -15 -40 -9 43 4 46 9
91 11 100 2 9 -3 0 -12 -19 -9 -19 -20 -63 -24 -98 -10 -80 -17 -87 -25 -25
-3 26 -7 62 -9 79 -3 20 4 46 19 72 15 27 18 39 9 35 -8 -3 -14 -1 -14 5 0 23
-92 102 -133 113 -23 7 -55 24 -71 38 l-29 26 18 -28z m140 -174 l18 -28 -21
19 c-12 11 -22 23 -22 28 0 14 7 9 25 -19z m196 -73 c-10 -47 -47 -140 -55
-140 -3 0 2 16 10 35 7 19 14 51 14 70 0 20 5 57 12 82 10 43 12 44 20 23 5
-14 5 -43 -1 -70z m-144 -42 c-3 -8 -6 -5 -6 6 -1 11 2 17 5 13 3 -3 4 -12 1
-19z"/>
<path d="M3492 1389 c-15 -23 -6 -33 50 -64 25 -14 28 -13 42 7 9 12 13 24 10
27 -3 3 -10 -2 -16 -12 -7 -14 -13 -15 -23 -7 -8 6 -11 19 -8 28 6 15 4 15 -9
4 -19 -15 -31 -2 -22 22 9 23 -9 20 -24 -5z"/>
<path d="M1522 1354 c-43 -26 -57 -50 -23 -39 11 3 29 0 40 -6 15 -10 23 -10
35 0 19 16 20 30 3 53 -12 16 -16 15 -55 -8z m48 -19 c0 -8 -7 -15 -15 -15
-16 0 -20 12 -8 23 11 12 23 8 23 -8z"/>
<path d="M2297 1310 c-11 -17 -28 -20 -118 -23 l-104 -3 108 -2 c90 -2 109 1
114 14 5 13 7 13 14 2 6 -9 9 -7 9 10 0 27 -5 28 -23 2z"/>
<path d="M3442 1318 c-20 -20 -14 -33 28 -67 l39 -31 14 27 c18 35 13 50 -23
68 -35 18 -43 18 -58 3z m58 -28 c18 -13 22 -22 14 -30 -8 -8 -18 -5 -37 10
-15 12 -27 26 -27 31 0 15 23 10 50 -11z"/>
<path d="M1928 1303 c23 -2 59 -2 80 0 20 2 1 4 -43 4 -44 0 -61 -2 -37 -4z"/>
<path d="M3033 1303 c20 -2 54 -2 75 0 20 2 3 4 -38 4 -41 0 -58 -2 -37 -4z"/>
<path d="M1568 1272 c-21 -15 -38 -30 -38 -34 0 -12 28 -9 36 3 4 8 9 7 15 -2
4 -8 3 -19 -3 -26 -25 -30 4 -23 37 8 33 33 34 36 19 57 -19 27 -21 27 -66 -6z
m54 -24 c-9 -9 -15 -9 -24 0 -10 10 -10 15 2 22 20 12 38 -6 22 -22z"/>
<path d="M1905 1260 c7 -12 92 -12 120 0 14 6 -3 9 -53 9 -46 1 -71 -3 -67 -9z"/>
<path d="M2596 1255 c-9 -26 -7 -32 5 -12 6 10 9 21 6 23 -2 3 -7 -2 -11 -11z"/>
<path d="M3023 1263 c20 -2 54 -2 75 0 20 2 3 4 -38 4 -41 0 -58 -2 -37 -4z"/>
<path d="M2301 1244 c0 -11 3 -14 6 -6 3 7 2 16 -1 19 -3 4 -6 -2 -5 -13z"/>
<path d="M3380 1240 c0 -16 51 -90 62 -90 6 0 7 7 4 15 -4 11 3 19 22 26 l27
10 -50 25 c-56 27 -65 29 -65 14z m55 -31 c11 -17 -1 -21 -15 -4 -8 9 -8 15
-2 15 6 0 14 -5 17 -11z"/>
<path d="M1625 1190 c-24 -25 -27 -34 -19 -48 19 -30 46 -27 76 8 21 26 25 37
17 52 -14 26 -41 22 -74 -12z m65 3 c0 -12 -43 -53 -57 -53 -19 0 -16 10 9 37
20 22 48 31 48 16z"/>
<path d="M2329 1178 c7 -10 26 -44 41 -77 15 -32 34 -62 40 -66 15 -9 14 -8
-27 71 -17 33 -40 67 -50 75 -16 13 -17 13 -4 -3z"/>
<path d="M3320 1175 c-13 -16 -11 -20 36 -72 20 -22 22 -22 38 -5 22 25 20 45
-7 70 -27 26 -50 28 -67 7z m70 -59 c-14 -14 -65 37 -55 54 5 8 16 3 36 -16
20 -19 26 -31 19 -38z"/>
<path d="M1700 1125 c-28 -29 -31 -37 -20 -50 19 -23 46 -18 74 16 21 24 24
34 16 50 -15 27 -31 24 -70 -16z m40 -26 c-22 -29 -31 -34 -43 -22 -10 9 44
64 55 57 4 -3 -1 -19 -12 -35z"/>
<path d="M3289 1102 c26 -37 50 -57 58 -48 7 7 -56 76 -70 76 -4 0 1 -13 12
-28z"/>
<path d="M1775 1066 c-27 -35 -26 -60 3 -71 19 -7 72 48 72 75 -1 9 -13 0 -31
-22 -17 -21 -35 -38 -40 -38 -15 0 -10 26 7 40 8 8 20 22 25 32 17 31 -8 21
-36 -16z"/>
<path d="M3220 1084 c0 -6 13 -28 29 -48 l29 -36 23 21 c24 20 24 20 2 14 -17
-5 -30 2 -52 27 -17 18 -31 28 -31 22z"/>
<path d="M1873 1047 c3 -8 -5 -31 -19 -50 -13 -20 -20 -38 -15 -41 5 -4 19 10
31 29 12 19 28 35 36 35 19 0 9 16 -18 31 -17 9 -20 9 -15 -4z"/>
<path d="M3166 1051 c-3 -5 3 -33 14 -62 16 -45 20 -50 25 -32 5 14 17 23 33
25 25 3 24 4 -21 41 -25 20 -48 33 -51 28z m44 -52 c0 -6 -4 -7 -10 -4 -5 3
-10 11 -10 16 0 6 5 7 10 4 6 -3 10 -11 10 -16z"/>
<path d="M3110 1014 c0 -4 10 -22 21 -41 15 -23 18 -38 11 -45 -6 -6 -17 4
-33 31 -12 23 -26 41 -31 41 -12 0 -10 -9 14 -51 22 -39 32 -44 62 -33 22 8
20 28 -6 69 -21 32 -38 45 -38 29z"/>
<path d="M1911 976 c-26 -42 -27 -63 -1 -71 26 -8 44 6 61 47 11 27 10 32 -6
44 -27 20 -31 18 -54 -20z m49 1 c0 -17 -29 -57 -41 -57 -11 0 -3 38 13 58 13
16 28 16 28 -1z"/>
<path d="M2002 958 c-16 -16 -15 -28 5 -50 12 -14 14 -21 5 -30 -8 -8 -13 -7
-18 5 -8 21 -24 22 -24 3 0 -14 21 -26 45 -26 21 0 27 31 8 52 -13 14 -14 21
-4 31 9 9 14 9 21 -3 5 -8 13 -11 17 -6 4 4 -1 14 -11 22 -24 17 -29 17 -44 2z"/>
<path d="M3010 955 c-10 -12 -9 -22 3 -52 12 -31 20 -39 46 -41 38 -4 40 11
11 68 -22 42 -40 50 -60 25z m40 -26 c7 -11 9 -28 5 -37 -5 -14 -9 -13 -20 8
-8 14 -14 31 -15 38 0 19 18 14 30 -9z"/>
<path d="M2115 894 c-25 -59 -23 -69 11 -72 27 -3 31 1 42 33 13 43 8 61 -19
68 -15 4 -23 -3 -34 -29z m34 -32 c-11 -33 -29 -43 -29 -18 0 8 5 27 10 42 16
40 34 17 19 -24z"/>
<path d="M2898 868 c5 -61 10 -70 23 -45 7 12 17 16 31 11 23 -7 22 -3 -12 48
-35 53 -48 49 -42 -14z m30 -13 c-3 -3 -9 2 -12 12 -6 14 -5 15 5 6 7 -7 10
-15 7 -18z"/>
<path d="M2830 899 c-22 -9 -23 -11 -8 -20 10 -5 20 -25 24 -44 3 -19 10 -35
15 -35 12 0 11 23 -2 57 -7 19 -7 29 0 31 12 4 15 22 4 21 -5 0 -19 -5 -33
-10z"/>
<path d="M2197 854 c-32 -54 -33 -57 -6 -49 14 5 25 1 34 -12 13 -16 14 -12
15 39 0 31 -4 59 -8 62 -4 2 -20 -15 -35 -40z m20 -26 c-3 -8 -6 -5 -6 6 -1
11 2 17 5 13 3 -3 4 -12 1 -19z"/>
<path d="M2764 863 c2 -10 7 -33 11 -50 7 -33 36 -46 50 -23 3 6 -3 10 -14 10
-15 0 -21 9 -26 40 -4 22 -11 40 -17 40 -5 0 -7 -8 -4 -17z"/>
<path d="M2316 839 c-3 -17 -6 -41 -6 -52 0 -20 1 -20 13 -2 13 17 14 17 21
-6 l6 -24 15 25 c14 25 14 25 15 3 0 -45 18 -22 22 28 4 63 -6 71 -28 22 l-17
-38 -10 38 c-13 45 -22 47 -31 6z"/>
<path d="M2697 863 c-4 -3 -7 -29 -7 -56 0 -42 2 -48 15 -37 8 6 23 9 35 5 21
-7 21 -6 5 32 -9 21 -19 44 -22 51 -6 13 -16 16 -26 5z m27 -48 c3 -8 1 -15
-4 -15 -6 0 -10 7 -10 15 0 8 2 15 4 15 2 0 6 -7 10 -15z"/>
<path d="M2436 813 c-20 -58 -20 -56 5 -48 13 5 25 2 30 -6 15 -25 19 -2 8 50
-6 28 -14 51 -19 51 -4 0 -15 -21 -24 -47z m34 -14 c0 -5 -4 -9 -10 -9 -5 0
-10 7 -10 16 0 8 5 12 10 9 6 -3 10 -10 10 -16z"/>
<path d="M2518 813 c-3 -27 -1 -52 4 -57 4 -6 8 16 8 47 0 69 -6 74 -12 10z"/>
<path d="M2573 853 c-23 -9 -15 -49 13 -61 29 -14 22 -36 -8 -26 -14 4 -18 2
-14 -5 4 -6 18 -11 32 -11 19 0 24 5 24 24 0 16 -7 27 -20 31 -11 3 -20 13
-20 21 0 11 6 13 20 9 24 -7 27 10 4 19 -9 3 -16 6 -17 5 -1 0 -8 -3 -14 -6z"/>
</g>
</svg>
